CddbId:a40fb261:[150, 1272, 2442, 6086, 9624, 12620, 16124, 19655, 22846, 26712, 30083, 33817, 36597, 39968, 43054, 46001, 49302, 52702, 55871, 59215, 61841, 64858, 68132, 71837, 75181, 78678, 82043, 85372, 88486, 91189, 94379, 97570, 100983, 104132, 107768, 111112, 114518, 118377, 121428, 124403, 127113, 130122, 133117, 137123, 140703, 144339, 148073, 151556, 154127, 157087, 159574, 162778, 165948, 169347, 172364, 175241, 178104, 180960, 184561, 187542, 190545, 193087, 195693, 198444, 201516, 203383, 205828, 208733, 212432, 215009, 218325, 221655, 224797, 227855, 231094, 234695, 237712, 240965, 244343, 247694, 250989, 255043, 257537, 260839, 264468, 267707, 270974, 274172, 276700, 280002, 283548, 286543, 289685, 292854, 296414, 298476, 299974]:301500:74:a40fb261 97 150 1272 2442 6086 9624 12620 16124 19655 22846 26712 30083 33817 36597 39968 43054 46001 49302 52702 55871 59215 61841 64858 68132 71837 75181 78678 82043 85372 88486 91189 94379 97570 100983 104132 107768 111112 114518 118377 121428 124403 127113 130122 133117 137123 140703 144339 148073 151556 154127 157087 159574 162778 165948 169347 172364 175241 178104 180960 184561 187542 190545 193087 195693 198444 201516 203383 205828 208733 212432 215009 218325 221655 224797 227855 231094 234695 237712 240965 244343 247694 250989 255043 257537 260839 264468 267707 270974 274172 276700 280002 283548 286543 289685 292854 296414 298476 299974 4020: 97 0 0 0 0 0 0 0 0 0 0 0 0 0 0 0 0 0 0 0 0 0 0 0 0 0 0 0 0 0 0 0 0 0 0 0 0 0 0 0 0 0 0 0 0 0 0 0 0 0 0 0 0 0 0 0 0 0 0 0 0 0 0 0 0 0 0 0 0 0 0 0 0 0 0 0 0 0 0 0 0 0 0 0 0 0 0 0 0 0 0 0 0 0 0 0 0 0 4020
num_tracks: 97
offsets: [150, 1272, 2442, 6086, 9624, 12620, 16124, 19655, 22846, 26712, 30083, 33817, 36597, 39968, 43054, 46001, 49302, 52702, 55871, 59215, 61841, 64858, 68132, 71837, 75181, 78678, 82043, 85372, 88486, 91189, 94379, 97570, 100983, 104132, 107768, 111112, 114518, 118377, 121428, 124403, 127113, 130122, 133117, 137123, 140703, 144339, 148073, 151556, 154127, 157087, 159574, 162778, 165948, 169347, 172364, 175241, 178104, 180960, 184561, 187542, 190545, 193087, 195693, 198444, 201516, 203383, 205828, 208733, 212432, 215009, 218325, 221655, 224797, 227855, 231094, 234695, 237712, 240965, 244343, 247694, 250989, 255043, 257537, 260839, 264468, 267707, 270974, 274172, 276700, 280002, 283548, 286543, 289685, 292854, 296414, 298476, 299974]
extents: [0, 0, 0, 0, 0, 0, 0, 0, 0, 0, 0, 0, 0, 0, 0, 0, 0, 0, 0, 0, 0, 0, 0, 0, 0, 0, 0, 0, 0, 0, 0, 0, 0, 0, 0, 0, 0, 0, 0, 0, 0, 0, 0, 0, 0, 0, 0, 0, 0, 0, 0, 0, 0, 0, 0, 0, 0, 0, 0, 0, 0, 0, 0, 0, 0, 0, 0, 0, 0, 0, 0, 0, 0, 0, 0, 0, 0, 0, 0, 0, 0, 0, 0, 0, 0, 0, 0, 0, 0, 0, 0, 0, 0, 0, 0, 0, 0]
total_length: 4020
cddb: [2752492129, 97, 150, 1272, 2442, 6086, 9624, 12620, 16124, 19655, 22846, 26712, 30083, 33817, 36597, 39968, 43054, 46001, 49302, 52702, 55871, 59215, 61841, 64858, 68132, 71837, 75181, 78678, 82043, 85372, 88486, 91189, 94379, 97570, 100983, 104132, 107768, 111112, 114518, 118377, 121428, 124403, 127113, 130122, 133117, 137123, 140703, 144339, 148073, 151556, 154127, 157087, 159574, 162778, 165948, 169347, 172364, 175241, 178104, 180960, 184561, 187542, 190545, 193087, 195693, 198444, 201516, 203383, 205828, 208733, 212432, 215009, 218325, 221655, 224797, 227855, 231094, 234695, 237712, 240965, 244343, 247694, 250989, 255043, 257537, 260839, 264468, 267707, 270974, 274172, 276700, 280002, 283548, 286543, 289685, 292854, 296414, 298476, 299974, 4020]
musicbrainz: ('97 150 1272 2442 6086 9624 12620 16124 19655 22846 26712 30083 33817 36597 39968 43054 46001 49302 52702 55871 59215 61841 64858 68132 71837 75181 78678 82043 85372 88486 91189 94379 97570 100983 104132 107768 111112 114518 118377 121428 124403 127113 130122 133117 137123 140703 144339 148073 151556 154127 157087 159574 162778 165948 169347 172364 175241 178104 180960 184561 187542 190545 193087 195693 198444 201516 203383 205828 208733 212432 215009 218325 221655 224797 227855 231094 234695 237712 240965 244343 247694 250989 255043 257537 260839 264468 267707 270974 274172 276700 280002 283548 286543 289685 292854 296414 298476 299974 301500', 'X7cJ4BbVkJW7UxCBHzTrsCVFv8Q-')

CD record:
Device type    : Removable CD-ROM
Version        : 0
Response Format: 2
Capabilities   : 
Vendor_info    : 'FREECOM_'
Identification : 'DVD+/-RW16H4    '
Revision       : 'FR00'
Device seems to be: Generic mmc2 DVD-R/DVD-RW.
Using generic SCSI-3/mmc   CD-R/CD-RW driver (mmc_cdr).
Driver flags   : MMC-3 SWABAUDIO BURNFREE 
Supported modes: TAO PACKET SAO SAO/R96R RAW/R96R
first: 1 last 97
track:   1 lba:         0 (        0) 00:02:00 adr: 1 control: 0 mode: -1
track:   2 lba:      1122 (     4488) 00:16:72 adr: 1 control: 0 mode: -1
track:   3 lba:      2292 (     9168) 00:32:42 adr: 1 control: 0 mode: -1
track:   4 lba:      5936 (    23744) 01:21:11 adr: 1 control: 0 mode: -1
track:   5 lba:      9474 (    37896) 02:08:24 adr: 1 control: 0 mode: -1
track:   6 lba:     12470 (    49880) 02:48:20 adr: 1 control: 0 mode: -1
track:   7 lba:     15974 (    63896) 03:34:74 adr: 1 control: 0 mode: -1
track:   8 lba:     19505 (    78020) 04:22:05 adr: 1 control: 0 mode: -1
track:   9 lba:     22696 (    90784) 05:04:46 adr: 1 control: 0 mode: -1
track:  10 lba:     26562 (   106248) 05:56:12 adr: 1 control: 0 mode: -1
track:  11 lba:     29933 (   119732) 06:41:08 adr: 1 control: 0 mode: -1
track:  12 lba:     33667 (   134668) 07:30:67 adr: 1 control: 0 mode: -1
track:  13 lba:     36447 (   145788) 08:07:72 adr: 1 control: 0 mode: -1
track:  14 lba:     39818 (   159272) 08:52:68 adr: 1 control: 0 mode: -1
track:  15 lba:     42904 (   171616) 09:34:04 adr: 1 control: 0 mode: -1
track:  16 lba:     45851 (   183404) 10:13:26 adr: 1 control: 0 mode: -1
track:  17 lba:     49152 (   196608) 10:57:27 adr: 1 control: 0 mode: -1
track:  18 lba:     52552 (   210208) 11:42:52 adr: 1 control: 0 mode: -1
track:  19 lba:     55721 (   222884) 12:24:71 adr: 1 control: 0 mode: -1
track:  20 lba:     59065 (   236260) 13:09:40 adr: 1 control: 0 mode: -1
track:  21 lba:     61691 (   246764) 13:44:41 adr: 1 control: 0 mode: -1
track:  22 lba:     64708 (   258832) 14:24:58 adr: 1 control: 0 mode: -1
track:  23 lba:     67982 (   271928) 15:08:32 adr: 1 control: 0 mode: -1
track:  24 lba:     71687 (   286748) 15:57:62 adr: 1 control: 0 mode: -1
track:  25 lba:     75031 (   300124) 16:42:31 adr: 1 control: 0 mode: -1
track:  26 lba:     78528 (   314112) 17:29:03 adr: 1 control: 0 mode: -1
track:  27 lba:     81893 (   327572) 18:13:68 adr: 1 control: 0 mode: -1
track:  28 lba:     85222 (   340888) 18:58:22 adr: 1 control: 0 mode: -1
track:  29 lba:     88336 (   353344) 19:39:61 adr: 1 control: 0 mode: -1
track:  30 lba:     91039 (   364156) 20:15:64 adr: 1 control: 0 mode: -1
track:  31 lba:     94229 (   376916) 20:58:29 adr: 1 control: 0 mode: -1
track:  32 lba:     97420 (   389680) 21:40:70 adr: 1 control: 0 mode: -1
track:  33 lba:    100833 (   403332) 22:26:33 adr: 1 control: 0 mode: -1
track:  34 lba:    103982 (   415928) 23:08:32 adr: 1 control: 0 mode: -1
track:  35 lba:    107618 (   430472) 23:56:68 adr: 1 control: 0 mode: -1
track:  36 lba:    110962 (   443848) 24:41:37 adr: 1 control: 0 mode: -1
track:  37 lba:    114368 (   457472) 25:26:68 adr: 1 control: 0 mode: -1
track:  38 lba:    118227 (   472908) 26:18:27 adr: 1 control: 0 mode: -1
track:  39 lba:    121278 (   485112) 26:59:03 adr: 1 control: 0 mode: -1
track:  40 lba:    124253 (   497012) 27:38:53 adr: 1 control: 0 mode: -1
track:  41 lba:    126963 (   507852) 28:14:63 adr: 1 control: 0 mode: -1
track:  42 lba:    129972 (   519888) 28:54:72 adr: 1 control: 0 mode: -1
track:  43 lba:    132967 (   531868) 29:34:67 adr: 1 control: 0 mode: -1
track:  44 lba:    136973 (   547892) 30:28:23 adr: 1 control: 0 mode: -1
track:  45 lba:    140553 (   562212) 31:16:03 adr: 1 control: 0 mode: -1
track:  46 lba:    144189 (   576756) 32:04:39 adr: 1 control: 0 mode: -1
track:  47 lba:    147923 (   591692) 32:54:23 adr: 1 control: 0 mode: -1
track:  48 lba:    151406 (   605624) 33:40:56 adr: 1 control: 0 mode: -1
track:  49 lba:    153977 (   615908) 34:15:02 adr: 1 control: 0 mode: -1
track:  50 lba:    156937 (   627748) 34:54:37 adr: 1 control: 0 mode: -1
track:  51 lba:    159424 (   637696) 35:27:49 adr: 1 control: 0 mode: -1
track:  52 lba:    162628 (   650512) 36:10:28 adr: 1 control: 0 mode: -1
track:  53 lba:    165798 (   663192) 36:52:48 adr: 1 control: 0 mode: -1
track:  54 lba:    169197 (   676788) 37:37:72 adr: 1 control: 0 mode: -1
track:  55 lba:    172214 (   688856) 38:18:14 adr: 1 control: 0 mode: -1
track:  56 lba:    175091 (   700364) 38:56:41 adr: 1 control: 0 mode: -1
track:  57 lba:    177954 (   711816) 39:34:54 adr: 1 control: 0 mode: -1
track:  58 lba:    180810 (   723240) 40:12:60 adr: 1 control: 0 mode: -1
track:  59 lba:    184411 (   737644) 41:00:61 adr: 1 control: 0 mode: -1
track:  60 lba:    187392 (   749568) 41:40:42 adr: 1 control: 0 mode: -1
track:  61 lba:    190395 (   761580) 42:20:45 adr: 1 control: 0 mode: -1
track:  62 lba:    192937 (   771748) 42:54:37 adr: 1 control: 0 mode: -1
track:  63 lba:    195543 (   782172) 43:29:18 adr: 1 control: 0 mode: -1
track:  64 lba:    198294 (   793176) 44:05:69 adr: 1 control: 0 mode: -1
track:  65 lba:    201366 (   805464) 44:46:66 adr: 1 control: 0 mode: -1
track:  66 lba:    203233 (   812932) 45:11:58 adr: 1 control: 0 mode: -1
track:  67 lba:    205678 (   822712) 45:44:28 adr: 1 control: 0 mode: -1
track:  68 lba:    208583 (   834332) 46:23:08 adr: 1 control: 0 mode: -1
track:  69 lba:    212282 (   849128) 47:12:32 adr: 1 control: 0 mode: -1
track:  70 lba:    214859 (   859436) 47:46:59 adr: 1 control: 0 mode: -1
track:  71 lba:    218175 (   872700) 48:31:00 adr: 1 control: 0 mode: -1
track:  72 lba:    221505 (   886020) 49:15:30 adr: 1 control: 0 mode: -1
track:  73 lba:    224647 (   898588) 49:57:22 adr: 1 control: 0 mode: -1
track:  74 lba:    227705 (   910820) 50:38:05 adr: 1 control: 0 mode: -1
track:  75 lba:    230944 (   923776) 51:21:19 adr: 1 control: 0 mode: -1
track:  76 lba:    234545 (   938180) 52:09:20 adr: 1 control: 0 mode: -1
track:  77 lba:    237562 (   950248) 52:49:37 adr: 1 control: 0 mode: -1
track:  78 lba:    240815 (   963260) 53:32:65 adr: 1 control: 0 mode: -1
track:  79 lba:    244193 (   976772) 54:17:68 adr: 1 control: 0 mode: -1
track:  80 lba:    247544 (   990176) 55:02:44 adr: 1 control: 0 mode: -1
track:  81 lba:    250839 (  1003356) 55:46:39 adr: 1 control: 0 mode: -1
track:  82 lba:    254893 (  1019572) 56:40:43 adr: 1 control: 0 mode: -1
track:  83 lba:    257387 (  1029548) 57:13:62 adr: 1 control: 0 mode: -1
track:  84 lba:    260689 (  1042756) 57:57:64 adr: 1 control: 0 mode: -1
track:  85 lba:    264318 (  1057272) 58:46:18 adr: 1 control: 0 mode: -1
track:  86 lba:    267557 (  1070228) 59:29:32 adr: 1 control: 0 mode: -1
track:  87 lba:    270824 (  1083296) 60:12:74 adr: 1 control: 0 mode: -1
track:  88 lba:    274022 (  1096088) 60:55:47 adr: 1 control: 0 mode: -1
track:  89 lba:    276550 (  1106200) 61:29:25 adr: 1 control: 0 mode: -1
track:  90 lba:    279852 (  1119408) 62:13:27 adr: 1 control: 0 mode: -1
track:  91 lba:    283398 (  1133592) 63:00:48 adr: 1 control: 0 mode: -1
track:  92 lba:    286393 (  1145572) 63:40:43 adr: 1 control: 0 mode: -1
track:  93 lba:    289535 (  1158140) 64:22:35 adr: 1 control: 0 mode: -1
track:  94 lba:    292704 (  1170816) 65:04:54 adr: 1 control: 0 mode: -1
track:  95 lba:    296264 (  1185056) 65:52:14 adr: 1 control: 0 mode: -1
track:  96 lba:    298326 (  1193304) 66:19:51 adr: 1 control: 0 mode: -1
track:  97 lba:    299824 (  1199296) 66:39:49 adr: 1 control: 0 mode: -1
track:lout lba:    301350 (  1205400) 67:00:00 adr: 1 control: 0 mode: -1
